<svg width="53" height="29" viewBox="0 0 53 29" fill="none" xmlns="http://www.w3.org/2000/svg">
<g clip-path="url(#clip0_37_2314)">
<path d="M10.4005 1.91987C8.79991 10.0247 8.00803 18.4492 8.72693 26.7013C8.8658 28.3129 4.63188 28.6733 4.49302 27.0721C4.07447 22.2543 4.18556 17.3938 4.65062 12.565C4.59184 12.6316 4.53952 12.7013 4.47881 12.7679C3.49767 13.8601 -0.62191 13.4092 0.720927 11.912C3.46861 8.84656 5.09887 5.56665 6.26409 1.65634C6.69232 0.22243 10.7531 0.133295 10.4005 1.91987Z" fill="#633BB3"/>
<path d="M28.969 12.835C33.1396 17.7058 30.9158 25.5419 24.8714 27.6243C17.4648 30.1756 10.6963 22.5301 12.1044 15.3321C13.1456 10.004 17.5869 3.33763 22.7328 1.0479C23.3012 0.794056 26.1709 0.46529 26.0056 1.77389C25.7756 3.59599 25.6394 5.50594 26.3615 7.25182C27.0565 8.93634 22.9001 9.60098 22.333 8.22843C21.9267 7.24536 21.7206 6.25648 21.6483 5.2521C17.2859 9.51572 14.7888 17.2233 17.5009 22.0366C19.0182 24.73 23.2308 25.6291 24.7105 24.4968C26.3815 23.2186 26.5617 21.8222 26.8259 20.3882C27.1999 18.3511 26.7426 16.2822 25.5651 14.5906C24.3689 12.8686 22.2199 12.2434 21.6477 14.9801C21.3421 16.4418 17.1399 16.4973 17.5113 14.7191C18.5744 9.621 25.9668 9.32905 28.969 12.835Z" fill="#633BB3"/>
<path d="M37.7404 14.1733C34.8131 15.1351 33.1163 12.3002 32.796 9.78441C32.4175 6.81454 33.5207 2.99078 36.218 1.33855C36.2903 1.26104 36.8142 1.03369 36.9304 1.0156C43.7622 -1.03386 42.9961 12.4455 37.7404 14.1733ZM35.025 10.626C36.0539 7.78856 37.0841 4.95046 38.1131 2.11299C38.1324 2.05874 38.0821 1.85399 37.7488 2.01223C35.8343 2.92167 34.9837 5.90123 34.8377 7.79502C34.7899 8.42026 34.808 9.56028 35.025 10.626ZM39.5095 4.02164C38.458 6.92241 37.4052 9.82252 36.353 12.7239C36.3271 12.795 36.5939 12.8783 36.714 12.8751C39.0735 12.8156 39.9248 8.38151 39.9797 7.08259C40.0753 4.84194 39.5089 4.02229 39.5102 4.02229L39.5095 4.02164Z" fill="#633BB3"/>
<path d="M48.6917 13.5074C45.7993 14.5706 44.005 11.7971 43.5974 9.29352C43.1156 6.33915 44.0845 2.47858 46.7223 0.73334C46.7921 0.653248 47.3075 0.407804 47.4231 0.385843C54.1787 -1.90066 53.8841 11.5968 48.6917 13.5074ZM45.8542 10.057C46.7837 7.18529 47.7138 4.31359 48.6433 1.4419C48.6607 1.387 48.6032 1.18418 48.2757 1.35406C46.3942 2.32937 45.6482 5.33671 45.5681 7.23502C45.5416 7.86155 45.5998 9.00028 45.8542 10.0576V10.057ZM50.1056 3.30017C49.1555 6.23581 48.2047 9.1708 47.2546 12.1071C47.2313 12.1788 47.5006 12.2524 47.6201 12.2453C49.9758 12.1039 50.672 7.64194 50.6817 6.34238C50.6992 4.0998 50.1043 3.30017 50.1056 3.30017Z" fill="#633BB3"/>
</g>
<defs>
<clipPath id="clip0_37_2314">
<rect width="52.0903" height="28" fill="white" transform="translate(0.454834 0.12619)"/>
</clipPath>
</defs>
</svg>
