<svg width="46" height="29" viewBox="0 0 46 29" fill="none" xmlns="http://www.w3.org/2000/svg">
<g clip-path="url(#clip0_37_2319)">
<path d="M10.1609 2.4809C8.59529 10.4087 7.82071 18.6492 8.5239 26.7211C8.65974 28.2974 4.5183 28.6499 4.38247 27.0837C3.97306 22.3711 4.08173 17.6169 4.53662 12.8935C4.47913 12.9586 4.42795 13.0269 4.36857 13.0919C3.40887 14.1603 -0.620739 13.7193 0.692768 12.2548C3.38043 9.25756 4.97509 6.04866 6.11422 2.22439C6.5331 0.821796 10.5052 0.733976 10.1603 2.48153L10.1609 2.4809Z" fill="#633BB3"/>
<path d="M24.4894 3.32182C23.3667 7.7444 22.0153 11.9541 21.0057 16.2541C21.3696 16.2086 21.7386 16.177 22.0968 16.1043C23.8412 15.7537 23.4722 19.9343 21.997 20.2306C21.3898 20.3532 20.77 20.4359 20.1452 20.4903C19.8129 22.5278 19.5949 24.6045 19.5582 26.7571C19.5311 28.3852 15.3909 28.6285 15.4168 27.1197C15.4566 24.8282 15.6967 22.6245 16.0537 20.4631C15.4396 20.4088 14.8292 20.3374 14.229 20.2515C12.6527 20.0246 13.3647 15.8529 14.9638 16.0841C15.5988 16.1764 16.2445 16.249 16.894 16.3046C17.6755 12.9479 18.6548 9.64169 19.5936 6.24515C18.2997 6.15922 17.0304 5.84901 15.8584 5.29934C15.9374 6.0038 16.0714 6.70383 16.3317 7.38807C16.9679 9.06612 12.9023 9.69034 12.3911 8.34334C11.6671 6.43279 11.5256 4.58731 11.729 2.57061C11.832 1.55215 13.4614 1.07136 14.6403 1.25584C15.6714 1.41569 19.2158 2.4651 21.1548 2.08539C23.0521 1.71326 24.7782 2.17321 24.4894 3.31992V3.32182Z" fill="#633BB3"/>
<path d="M31.0286 13.2031C28.1653 14.1439 26.5055 11.3709 26.1922 8.91007C25.8219 6.00506 26.901 2.26482 29.5394 0.648684C29.6102 0.572868 30.1226 0.350476 30.2363 0.332785C36.9188 -1.67191 36.1695 11.5131 31.0286 13.2031ZM28.3725 9.7333C29.379 6.95781 30.3867 4.1817 31.3931 1.40621C31.4121 1.35314 31.3628 1.15286 31.0368 1.30765C29.1641 2.19722 28.3321 5.1117 28.1893 6.96413C28.1425 7.57571 28.1602 8.69083 28.3725 9.7333ZM32.7591 3.27317C31.7305 6.11057 30.7007 8.94734 29.6715 11.7854C29.6462 11.8549 29.9071 11.9364 30.0246 11.9332C32.3326 11.8751 33.1653 7.5378 33.219 6.26726C33.3125 4.07555 32.7584 3.2738 32.7597 3.2738L32.7591 3.27317Z" fill="#633BB3"/>
<path d="M41.2536 15.1093C38.3587 15.9496 36.7975 13.1204 36.57 10.65C36.3015 7.73429 37.5102 4.03386 40.2035 2.51059C40.2768 2.4373 40.7968 2.2326 40.9111 2.21933C47.6594 0.449037 46.4507 13.5999 41.2536 15.1093ZM38.7201 11.5491C39.8232 8.81024 40.9263 6.0714 42.0294 3.33256C42.0503 3.28012 42.0079 3.07858 41.6762 3.22136C39.7733 4.04523 38.8407 6.92875 38.6335 8.77486C38.5653 9.38455 38.5438 10.499 38.7201 11.5485V11.5491ZM43.3296 5.24564C42.2025 8.04577 41.0741 10.8446 39.947 13.6448C39.9192 13.713 40.1776 13.8033 40.2945 13.8046C42.6031 13.8267 43.5862 9.52102 43.6841 8.25363C43.854 6.06698 43.3284 5.24564 43.329 5.24564H43.3296Z" fill="#633BB3"/>
</g>
<defs>
<clipPath id="clip0_37_2319">
<rect width="45.135" height="28" fill="white" transform="translate(0.432495 0.12619)"/>
</clipPath>
</defs>
</svg>
