<svg width="103" height="57" viewBox="0 0 103 57" fill="none" xmlns="http://www.w3.org/2000/svg">
<path d="M19.3451 2.83461C16.3586 17.9576 14.881 33.6771 16.2224 49.0749C16.4815 52.0819 8.58136 52.7544 8.32224 49.7667C7.54126 40.777 7.74856 31.7078 8.61631 22.6977C8.50664 22.8218 8.40901 22.952 8.29572 23.0761C6.46501 25.1141 -1.22182 24.2729 1.28381 21.4792C6.41078 15.7617 9.45273 9.64043 11.6257 2.34529C12.426 -0.331476 20.0031 -0.499 19.3451 2.83461Z" fill="#9E6EFF"/>
<path d="M46.6781 4.43875C44.5364 12.8752 41.9585 20.9055 40.0325 29.1082C40.7267 29.0214 41.4306 28.9612 42.1139 28.8226C45.4415 28.1537 44.7377 36.1285 41.9235 36.6938C40.7653 36.9276 39.583 37.0855 38.391 37.1891C37.7571 41.0759 37.3413 45.0375 37.2714 49.1436C37.2196 52.2494 29.3218 52.7134 29.3712 49.8354C29.4472 45.4641 29.9052 41.2603 30.5861 37.1373C29.4146 37.0336 28.2504 36.8975 27.1055 36.7336C24.0985 36.3009 25.4567 28.3429 28.5071 28.784C29.7183 28.9599 30.9501 29.0985 32.189 29.2046C33.6799 22.8013 35.5479 16.4945 37.3389 10.0153C34.8706 9.85135 32.4494 9.25959 30.2137 8.21106C30.3643 9.55486 30.6198 10.8902 31.1164 12.1955C32.33 15.3965 24.5745 16.5873 23.5995 14.0178C22.2183 10.3732 21.9484 6.85278 22.3364 3.00575C22.5329 1.06296 25.6411 0.145791 27.89 0.497712C29.8569 0.802631 36.6182 2.80448 40.317 2.08015C43.9362 1.3727 47.2288 2.25009 46.6781 4.43875Z" fill="#9E6EFF"/>
<path d="M71.7392 7.02754C66.9509 22.7387 62.1578 38.4474 57.3695 54.1585C56.5355 56.8859 48.6871 56.828 49.6513 53.6716C54.4396 37.9604 59.2327 22.2517 64.021 6.54063C64.855 3.81204 72.7034 3.86989 71.7392 7.02754Z" fill="#9E6EFF"/>
<path d="M95.2793 49.7354C94.4899 52.4664 86.6404 52.4338 87.5612 49.2485C89.387 42.9307 90.9574 36.4226 92.0674 29.8687C85.2797 31.4897 77.5013 30.3676 75.1451 23.1279C71.973 13.3706 83.7635 -1.61382 94.2561 0.29162C109.982 3.14676 98.0164 40.2612 95.2793 49.7354ZM93.0822 22.6242C93.0822 22.6242 93.2871 21.067 93.4137 19.3086C93.633 16.2341 93.8029 13.0343 93.31 9.97789C92.8279 6.9962 92.4073 6.56715 89.9306 7.26135C85.8678 8.40027 81.9172 16.5945 82.6367 20.5801C83.4201 24.9358 88.8182 25.031 93.0822 22.6242Z" fill="#9E6EFF"/>
</svg>
