<svg width="46" height="29" viewBox="0 0 46 29" fill="none" xmlns="http://www.w3.org/2000/svg">
<g clip-path="url(#clip0_37_2309)">
<path d="M9.52898 3.42422C8.01975 11.0666 7.27305 19.0105 7.95092 26.7918C8.08187 28.3113 4.08953 28.6512 3.95858 27.1414C3.56391 22.5984 3.66867 18.0153 4.10719 13.462C4.05176 13.5248 4.00243 13.5905 3.94518 13.6533C3.02003 14.6832 -0.864513 14.2581 0.401708 12.8463C2.99262 9.95692 4.52987 6.86354 5.62799 3.17694C6.0318 1.82485 9.86091 1.74019 9.52837 3.42483L9.52898 3.42422Z" fill="#633BB3"/>
<path d="M21.3994 27.1261C21.0005 28.5062 17.0337 28.4898 17.499 26.8801C18.4218 23.6874 19.2153 20.3985 19.7763 17.0865C16.3461 17.9057 12.4153 17.3386 11.2246 13.6801C9.62215 8.74917 15.5799 1.1762 20.8823 2.13973C28.8293 3.58196 22.7826 22.3378 21.3994 27.1261ZM20.2891 13.4249C20.2891 13.4249 20.3926 12.638 20.4566 11.7494C20.5674 10.1957 20.6533 8.57863 20.4042 7.03408C20.1606 5.52728 19.948 5.31046 18.6964 5.66127C16.6433 6.23683 14.6468 10.3778 15.0104 12.3919C15.4063 14.5936 18.1343 14.6418 20.2897 13.4249H20.2891Z" fill="#633BB3"/>
<path d="M33.2778 14.3908C28.7775 17.7607 23.8393 11.284 28.0034 7.65895C28.5107 7.218 30.4237 7.47319 29.7526 8.05727C28.4504 9.19011 27.94 10.8425 28.6648 12.4632C29.4237 14.1594 31.5462 14.1393 32.3258 13.2598C34.3004 11.0362 33.6456 6.33365 29.9335 7.20216C29.5144 7.29961 27.9589 6.87997 28.8956 6.37994C29.7751 5.91097 30.6491 5.43043 31.5133 4.93222C30.4469 4.917 29.3786 4.93892 28.3164 4.97973C27.6209 5.00714 27.8688 3.02771 28.666 2.99665C30.4792 2.92539 32.3088 2.8992 34.1189 3.04538C34.784 3.09958 34.597 4.71662 33.9824 4.98704C33.374 5.36404 32.7534 5.72095 32.126 6.0675C33.4185 6.28432 34.5568 6.95915 35.1141 8.3618C35.96 10.4898 35.0739 13.0466 33.2784 14.3902L33.2778 14.3908Z" fill="#633BB3"/>
<path d="M40.5645 12.5125C37.6885 12.926 36.577 10.016 36.6921 7.62728C36.8267 4.80797 38.4773 1.43747 41.2527 0.344833C41.3325 0.284537 41.8563 0.159072 41.9671 0.162117C48.6466 -0.622343 45.728 11.7688 40.5651 12.5131L40.5645 12.5125ZM38.6234 8.77413C40.0437 6.30746 41.4647 3.84141 42.8844 1.37474C42.9112 1.32724 42.8978 1.12929 42.5622 1.22126C40.6351 1.75235 39.358 4.37981 38.9121 6.11439C38.7653 6.68751 38.5954 7.74848 38.6228 8.77413H38.6234ZM43.8692 3.37548C42.4172 5.89696 40.9652 8.41783 39.5133 10.9393C39.4773 11.0008 39.7118 11.122 39.8239 11.1385C42.0244 11.4698 43.5409 7.49146 43.8047 6.29406C44.2602 4.22937 43.8686 3.37487 43.8692 3.37487V3.37548Z" fill="#633BB3"/>
</g>
<defs>
<clipPath id="clip0_37_2309">
<rect width="45.6985" height="28" fill="white" transform="translate(0.150757 0.12619)"/>
</clipPath>
</defs>
</svg>
