<svg width="16" height="16" viewBox="0 0 16 16" fill="none" xmlns="http://www.w3.org/2000/svg">
<path d="M6.5 0C7.3125 0 8.09375 0.34375 8.625 0.90625C9.03125 0.65625 9.5 0.5 10 0.5C11.375 0.5 12.5 1.625 12.5 3C12.5 4.40625 11.375 5.5 10 5.5C9.5 5.5 9.03125 5.375 8.625 5.125C8.09375 5.65625 7.3125 6 6.5 6C5.65625 6 4.875 5.65625 4.34375 5.125C3.9375 5.375 3.5 5.5 3 5.5C1.59375 5.5 0.5 4.40625 0.5 3C0.5 1.625 1.59375 0.5 3 0.5C3.5 0.5 3.9375 0.65625 4.34375 0.90625C4.875 0.34375 5.65625 0 6.5 0ZM4.84375 1.90625L4.5 2.40625L4.0625 1.96875C3.78125 1.6875 3.40625 1.5 3 1.5C2.15625 1.5 1.5 2.1875 1.5 3C1.5 3.84375 2.15625 4.5 3 4.5C3.40625 4.5 3.78125 4.34375 4.0625 4.0625L4.5 3.625L4.84375 4.125C5.1875 4.65625 5.8125 5 6.5 5C7.1875 5 7.78125 4.65625 8.15625 4.125L8.5 3.625L8.90625 4.0625C9.1875 4.34375 9.5625 4.5 10 4.5C10.8125 4.5 11.5 3.84375 11.5 3C11.5 2.1875 10.8125 1.5 10 1.5C9.5625 1.5 9.1875 1.6875 8.90625 1.96875L8.5 2.40625L8.15625 1.90625C7.78125 1.375 7.1875 1 6.5 1C5.8125 1 5.1875 1.375 4.84375 1.90625ZM1 5.875C1.28125 6.09375 1.625 6.25 2 6.375V15H11V13.2812V13.25V6.375C11.3438 6.25 11.6875 6.09375 12 5.875V6H15.5H16V6.5V11.5V11.8438L15.6875 11.9688L12 13.5938V15V16H11H2H1V15V5.875ZM6.5 7H7V7.5V12.5V13H6V12.5V7.5V7H6.5ZM15 11.1875V7H12V12.5L15 11.1875ZM5 7.5V12.5V13H4V12.5V7.5V7H5V7.5ZM9 7.5V12.5V13H8V12.5V7.5V7H9V7.5Z" fill="white"/>
</svg>
