<svg width="18" height="16" viewBox="0 0 18 16" fill="none" xmlns="http://www.w3.org/2000/svg">
<path d="M17 4.5C17 2.59375 15.4062 1 13.5 1C12.0938 1 10.875 1.84375 10.3125 3H9.25C9.875 1.28125 11.5312 0 13.5 0C15.9688 0 18 2.03125 18 4.5C18 7 15.9688 9 13.5 9C12.5938 9 11.7812 8.75 11.0938 8.3125L11.8125 7.59375C12.3125 7.875 12.875 8 13.5 8C15.4062 8 17 6.4375 17 4.5ZM0 5V4H1H12H13V5L7.1875 10.8125L7 11V15H10V16H7H6.5H3V15H6V11L5.78125 10.8125L0 5ZM6.5 10.0938L11.5625 5H1.40625L6.5 10.0938Z" fill="white"/>
</svg>
