<svg width="16" height="14" viewBox="0 0 16 14" fill="none" xmlns="http://www.w3.org/2000/svg">
<path d="M2.84375 13H13.125L14.8438 1H1.125L2.84375 13ZM14 14H2L0.125 1L0 0H1H14.9688H16L15.8438 1L14 14ZM8 5H8.0625L7.0625 6H4V10H5.78125L6.78125 11H4H3V10V6V5H4H8ZM9.75 6.1875L7.25 8.65625L9.75 11.125L12.2188 8.65625L9.75 6.1875ZM9.75 4.75L10.4375 5.46875L12.9062 7.9375L13.625 8.65625L12.9062 9.34375L10.4375 11.8438L9.75 12.5312L9.03125 11.8438L6.5625 9.375L5.84375 8.65625L6.5625 7.9375L9.03125 5.46875L9.75 4.75Z" fill="white"/>
</svg>
