<?xml version="1.0" encoding="UTF-8"?>
<svg id="Layer_1" xmlns="http://www.w3.org/2000/svg" width="18.3mm" height="13.1mm" version="1.1" viewBox="0 0 52 37">
  <!-- Generator: Adobe Illustrator 29.2.1, SVG Export Plug-In . SVG Version: 2.1.0 Build 116)  -->
  <defs>
    <style>
      .st0 {
        fill: #9e6eff;
      }
    </style>
  </defs>
  <path class="st0" d="M6.1,5.6c.8-1.7,1.7-3.3,2.7-4.9.9-1.3,4.9,0,3.9,1.6-.9,1.4-1.7,2.8-2.4,4.3-.4.9-1.6.8-2.4.6-.5-.1-2.2-.8-1.8-1.7Z"/>
  <path class="st0" d="M24.9,27.2c.5,0,25.5,3.6,25.9,3.6,1.5,0,1.3,5.4-.4,5.4-4.7,0-36-5.4-40.6-4.6-1.4.2-1.3-5.1.4-5.4,2.8-.4,7.7,1.4,10.5,1.2.9-2.2,0-7.5-.2-10.1-5.4,3.6-14.6,2.2-19.7-2.4-1.2-1.1-.4-6.3,1-5.1,5.1,4.5,16.9,5,22.1,1.1.4-.3.9.4,1.1.8v15.6Z"/>
</svg>