<?xml version="1.0" encoding="utf-8"?>
<!-- Generator: Adobe Illustrator 27.7.0, SVG Export Plug-In . SVG Version: 6.00 Build 0)  -->
<svg version="1.1" id="Layer_1" xmlns="http://www.w3.org/2000/svg" xmlns:xlink="http://www.w3.org/1999/xlink" x="0px" y="0px"
	 viewBox="0 0 356.41 67.77" style="enable-background:new 0 0 356.41 67.77;" xml:space="preserve">
<style type="text/css">
	.st0{clip-path:url(#SVGID_00000063608172088732121060000003187750272326861493_);}
	.st1{fill:#9E6EFF;}
	.st2{fill:#633BB3;}
	.st3{fill:#44B355;stroke:#44B355;stroke-width:2;stroke-miterlimit:10;}
</style>
<g>
	<g>
		<defs>
			<rect id="SVGID_1_" y="6.59" width="67.7" height="35.95"/>
		</defs>
		<clipPath id="SVGID_00000129917797037006674700000006317926261926432172_">
			<use xlink:href="#SVGID_1_"  style="overflow:visible;"/>
		</clipPath>
		<g style="clip-path:url(#SVGID_00000129917797037006674700000006317926261926432172_);">
			<path class="st1" d="M13.95,11.96c0.84-1.65,1.71-3.32,2.74-4.86c0.86-1.29,4.93,0.09,3.92,1.61c-0.91,1.37-1.7,2.82-2.44,4.28
				c-0.44,0.86-1.55,0.85-2.39,0.64C15.26,13.51,13.53,12.79,13.95,11.96z"/>
			<path class="st1" d="M32.76,33.6c0.46,0,25.46,3.55,25.92,3.56c1.53,0.02,1.26,5.4-0.36,5.38c-4.7-0.06-35.98-5.37-40.64-4.64
				c-1.42,0.22-1.28-5.12,0.36-5.38c2.79-0.44,7.66,1.37,10.46,1.22c0.9-2.15-0.06-7.55-0.18-10.13c-5.36,3.63-14.56,2.2-19.72-2.37
				c-1.25-1.11-0.41-6.33,0.96-5.12c5.12,4.54,16.92,5.05,22.08,1.11c0.45-0.34,0.92,0.36,1.06,0.82L32.76,33.6z"/>
		</g>
	</g>
	<path class="st2" d="M62.55,8.27c0-1.18-0.31-2.04-0.92-2.6c-0.62-0.56-1.44-0.84-2.48-0.84H46.97V0h13.15
		c2.52,0,4.47,0.7,5.84,2.1c1.37,1.37,2.06,3.26,2.06,5.67v17.77h-5.46V8.27z M46.97,11.93h5.46v13.61h-5.46V11.93z M72.48,20.71
		h6.22V7.48c0-0.84-0.24-1.48-0.71-1.93c-0.45-0.48-1.2-0.71-2.27-0.71h-2.77V0h3.82c2.32,0,4.13,0.62,5.42,1.85
		c1.32,1.2,1.97,2.97,1.97,5.29v18.4H72.48V20.71z M103.72,26.04c-2.49,0-4.62-0.32-6.38-0.97c-1.76-0.64-3.21-1.6-4.33-2.86
		c-1.09-1.29-1.9-2.9-2.44-4.83c-0.5-1.96-0.76-4.24-0.76-6.85V0h5.38v10.96h5.84V0h5.38v10.16c0,1.68-0.45,2.98-1.34,3.91
		c-0.87,0.92-2.23,1.39-4.07,1.39h-5.33c0.45,2.02,1.32,3.47,2.6,4.37c1.32,0.87,3.14,1.3,5.46,1.3c1.48,0,2.76-0.18,3.82-0.55
		c1.09-0.36,1.97-0.94,2.65-1.72c0.7-0.78,1.22-1.79,1.55-3.02c0.34-1.26,0.5-2.79,0.5-4.58V0h5.38v10.54c0,2.6-0.27,4.89-0.8,6.85
		c-0.5,1.93-1.32,3.54-2.44,4.83c-1.09,1.26-2.52,2.21-4.28,2.86C108.34,25.72,106.21,26.04,103.72,26.04z M139.13,8.27
		c0-1.18-0.31-2.04-0.92-2.6c-0.62-0.56-1.44-0.84-2.48-0.84h-12.18V0h13.15c2.52,0,4.47,0.7,5.84,2.1
		c1.37,1.37,2.06,3.26,2.06,5.67v17.77h-5.46V8.27z M123.55,11.93h5.46v13.61h-5.46V11.93z M174.1,26.04
		c-2.49,0-4.62-0.32-6.38-0.97c-1.76-0.64-3.21-1.6-4.33-2.86c-1.09-1.29-1.9-2.9-2.44-4.83c-0.5-1.96-0.76-4.24-0.76-6.85V0h5.38
		v10.96h5.84V0h5.38v10.16c0,1.68-0.45,2.98-1.34,3.91c-0.87,0.92-2.23,1.39-4.07,1.39h-5.33c0.45,2.02,1.32,3.47,2.6,4.37
		c1.32,0.87,3.14,1.3,5.46,1.3c1.48,0,2.76-0.18,3.82-0.55c1.09-0.36,1.97-0.94,2.65-1.72c0.7-0.78,1.22-1.79,1.55-3.02
		c0.34-1.26,0.5-2.79,0.5-4.58V0h5.38v10.54c0,2.6-0.27,4.89-0.8,6.85c-0.5,1.93-1.32,3.54-2.44,4.83
		c-1.09,1.26-2.52,2.21-4.28,2.86C178.72,25.72,176.6,26.04,174.1,26.04z M193.89,16.34c0-1.65,0.32-2.9,0.97-3.74
		s1.65-1.58,3.02-2.23l1.43-0.67L193.3,0h6.47l7.48,12.35l2.77-1.3V0h5.38v9.2c0,1.65-0.32,2.9-0.97,3.74
		c-0.64,0.84-1.65,1.58-3.02,2.23l-1.43,0.67l6.01,9.7h-6.47l-7.48-12.35l-2.77,1.3v11.05h-5.38V16.34z M232.28,8.9
		c0-2.72-1.37-4.07-4.12-4.07h-8.86V0h9.16c3.08,0,5.39,0.71,6.93,2.14c1.57,1.4,2.35,3.46,2.35,6.17v17.22h-5.46V8.9z
		 M255.43,20.71h3.44l-0.55-5.21c-0.08-0.84-0.13-1.61-0.13-2.31c0-1.82,0.31-3.3,0.92-4.45c0.62-1.15,1.48-2.14,2.6-2.98l0.88-0.67
		V4.83h-7.1V0h13.36c3.08,0,5.39,0.71,6.93,2.14c1.57,1.4,2.35,3.46,2.35,6.17v17.22h-5.46V8.9c0-2.72-1.37-4.07-4.12-4.07h-3.7
		l-0.21,0.42c-0.39,0.81-0.7,1.65-0.92,2.52c-0.22,0.84-0.34,1.83-0.34,2.98c0,0.73,0.03,1.51,0.08,2.35
		c0.06,0.81,0.13,1.67,0.21,2.56l0.97,9.87h-9.24V20.71z M282.24,20.71h8.02c1.68,0,3.02-0.53,4.03-1.6
		c1.04-1.09,1.55-2.6,1.55-4.54v-3.61c0-1.93-0.52-3.43-1.55-4.49c-1.01-1.09-2.35-1.64-4.03-1.64h-8.02V0h8.27
		c1.65,0,3.15,0.27,4.49,0.8c1.37,0.53,2.53,1.33,3.49,2.39c0.98,1.06,1.72,2.39,2.23,3.99c0.53,1.6,0.8,3.46,0.8,5.59
		s-0.27,3.99-0.8,5.59c-0.5,1.6-1.25,2.93-2.23,3.99c-0.95,1.06-2.11,1.86-3.49,2.39c-1.34,0.53-2.84,0.8-4.49,0.8h-8.27V20.71z
		 M306.44,0h5.46v25.54h-5.46V0z M316.61,20.71h6.22V7.48c0-0.84-0.24-1.48-0.71-1.93c-0.45-0.48-1.2-0.71-2.27-0.71h-2.77V0h3.82
		c2.32,0,4.13,0.62,5.42,1.85c1.32,1.2,1.97,2.97,1.97,5.29v18.4h-11.68V20.71z M334.57,0h13.94c2.52,0,4.47,0.7,5.84,2.1
		c1.37,1.37,2.06,3.26,2.06,5.67v17.77h-5.46V8.27c0-1.18-0.31-2.04-0.92-2.6c-0.59-0.56-1.4-0.84-2.44-0.84h-7.56v20.71h-5.46V0z"
		/>
	<path class="st3" d="M101.35,49.58h7.81c1.74,0,3.04,0.48,3.92,1.43c0.88,0.93,1.32,2.28,1.32,4.03v11.4h-13.05V49.58z
		 M112.78,64.98V54.96c0-1.29-0.33-2.26-0.98-2.91c-0.65-0.67-1.56-1.01-2.72-1.01H103v13.94H112.78z M119.31,49.58h1.65v9.18h-1.65
		V49.58z M125.79,49.58h1.65v9.18h-1.65V49.58z M140.39,54.79c0-1.34-0.33-2.31-0.98-2.88c-0.63-0.58-1.51-0.87-2.63-0.87h-5.99
		v-1.46h6.08c1.72,0,3,0.45,3.86,1.34c0.86,0.88,1.29,2.17,1.29,3.86v11.65h-1.62V54.79z M158.24,54.96c0-1.29-0.33-2.26-0.98-2.91
		c-0.65-0.67-1.56-1.01-2.72-1.01h-7.34v-1.46h7.42c1.74,0,3.04,0.48,3.92,1.43c0.88,0.93,1.32,2.28,1.32,4.03v11.4h-1.62V54.96z
		 M147.21,57.7h1.65v8.74h-1.65V57.7z M163.8,64.98h9.69l-3.78-5.57l-6.41-9.83h1.96l5.4,8.48l3.05-1.48v-7h1.62v6.3
		c0,0.56-0.11,1-0.34,1.32c-0.21,0.3-0.56,0.58-1.06,0.84l-2.52,1.23l3.84,5.71v1.46H163.8V64.98z M185.74,64.98h2.88l-0.56-5.74
		c-0.04-0.35-0.07-0.68-0.08-0.98c-0.02-0.32-0.03-0.63-0.03-0.92c0-1.27,0.13-2.34,0.39-3.22c0.28-0.9,0.63-1.61,1.06-2.16
		l0.62-0.81v-0.11h-4.06v-1.46h8.9c1.72,0,3.01,0.45,3.86,1.34c0.86,0.88,1.29,2.17,1.29,3.86v11.65h-1.62V54.79
		c0-1.34-0.33-2.31-0.98-2.88c-0.63-0.58-1.51-0.87-2.63-0.87h-3.86l-0.25,0.48c-0.32,0.62-0.58,1.33-0.78,2.16
		c-0.21,0.8-0.31,1.78-0.31,2.94c0,0.82,0.06,1.76,0.17,2.83l0.67,7h-4.68V64.98z M203.78,64.98h9.27V51.04H204v-1.46h8.88
		c0.6,0,1.04,0.16,1.34,0.48c0.3,0.32,0.45,0.74,0.45,1.26v13.66h2.38v1.46h-13.27V64.98z M220.1,49.58h1.65v9.18h-1.65V49.58z
		 M226.78,49.58h7.73c2.13,0,3.81,0.71,5.04,2.13c1.25,1.42,1.88,3.52,1.88,6.3c0,1.44-0.17,2.7-0.5,3.78
		c-0.34,1.08-0.82,2-1.46,2.74c-0.64,0.75-1.4,1.31-2.3,1.68c-0.88,0.37-1.87,0.56-2.97,0.56c-1.1,0-2.1-0.19-3-0.56
		c-0.88-0.37-1.63-0.93-2.27-1.68c-0.64-0.75-1.12-1.66-1.46-2.74c-0.34-1.08-0.5-2.34-0.5-3.78c0-0.86,0.09-1.65,0.28-2.38
		c0.21-0.75,0.47-1.41,0.78-1.99c0.32-0.6,0.67-1.1,1.06-1.51c0.41-0.43,0.83-0.76,1.26-0.98v-0.11h-3.58V49.58z M234.2,65.32
		c0.84,0,1.6-0.14,2.27-0.42c0.67-0.3,1.24-0.72,1.71-1.26c0.48-0.54,0.86-1.19,1.12-1.96c0.26-0.77,0.39-1.62,0.39-2.58V57
		c0-1.85-0.48-3.3-1.43-4.37c-0.95-1.06-2.25-1.6-3.89-1.6h-3.02c-0.82,0.62-1.46,1.47-1.93,2.55c-0.47,1.08-0.7,2.27-0.7,3.56v1.96
		c0,0.95,0.13,1.81,0.39,2.58c0.26,0.77,0.62,1.42,1.09,1.96c0.49,0.54,1.06,0.96,1.74,1.26C232.6,65.18,233.36,65.32,234.2,65.32z
		 M246.6,54.37l-0.81-4.79h1.62l0.59,3.5h0.11c0.37-1.12,0.99-2.03,1.85-2.74c0.86-0.73,1.99-1.09,3.39-1.09
		c0.77,0,1.46,0.12,2.1,0.36c0.63,0.22,1.18,0.6,1.62,1.12c0.47,0.5,0.82,1.17,1.06,1.99c0.26,0.82,0.39,1.81,0.39,2.97v10.75h-7.08
		v-1.46h5.43v-8.99c0-0.41-0.03-0.91-0.08-1.51c-0.04-0.6-0.19-1.18-0.45-1.74c-0.24-0.56-0.63-1.04-1.18-1.43
		c-0.54-0.39-1.32-0.59-2.32-0.59c-0.99,0-1.78,0.19-2.38,0.56c-0.6,0.37-1.07,0.82-1.43,1.34c-0.34,0.52-0.57,1.05-0.7,1.6
		c-0.13,0.52-0.22,0.94-0.28,1.26l-1.82,10.95h-1.65L246.6,54.37z"/>
</g>
</svg>
