<?xml version="1.0" encoding="UTF-8"?>
<svg id="Layer_1" xmlns="http://www.w3.org/2000/svg" width="28" height="42" version="1.1" viewBox="0 0 28 42">
  <!-- Generator: Adobe Illustrator 29.2.1, SVG Export Plug-In . SVG Version: 2.1.0 Build 116)  -->
  <defs>
    <style>
      .st0 {
        fill: #281d44;
      }
    </style>
  </defs>
  <path class="st0" d="M27.9,14c0-.3,0-.7,0-1,0-.5-.2-1.1-.3-1.6-.2-1-.6-2-1.1-3-.1-.2-.3-.5-.4-.7-1.2-2.1-2.9-3.8-4.9-5-.9-.6-1.9-1-2.9-1.3,0,0,0,0-.2,0-1.1-.3-2.2-.5-3.3-.6h-1.5c0,0-.1,0-.2,0-.6,0-1.1.1-1.7.2-2.9.6-5.4,2-7.5,4.3-.2.2-.3.4-.5.6-1.2,1.4-2,3-2.6,4.7C.3,11.9,0,13.2,0,14.6c0,.6,0,1.2,0,1.9,0,.5,0,.9.1,1.4.1.7.3,1.4.5,2,.2.7.5,1.4.7,2,.5,1.1,1.1,2.2,1.8,3.2.9,1.3,1.9,2.6,2.9,3.8.6.7,1.2,1.5,1.7,2.2.3.4.6.8.8,1.2.9,1.2,1.7,2.5,2.4,3.8.6,1.1,1,2.4,1.4,3.6.1.4.3.9.5,1.3.1.3.4.6.8.7.6.2,1.2,0,1.5-.7.2-.5.4-1.1.6-1.7.5-1.5,1.1-3,1.9-4.4,1.3-2.2,2.9-4.2,4.5-6.2,1.3-1.6,2.6-3.3,3.6-5.1.8-1.3,1.3-2.6,1.7-4.1.2-.7.3-1.4.4-2,0-.7.2-1.4.2-2,0-.5,0-1,0-1.5ZM17.6,19.1s0,0,0,0c0,0-.1,0-.2.1-.8.7-1.7,1.1-2.8,1.2-2.7.3-5.2-1.4-5.8-4.1-.3-1.3-.2-2.6.4-3.8,0,0,0-.2.1-.3,0,0,0,0,0,0,0,0,0,0,0,0,0,0,0,0,0,0,.1-.2.3-.4.4-.6.2-.2.3-.4.5-.5.5-.4,1.1-.8,1.7-1,.5-.2,1.1-.3,1.7-.3,1,0,2,.2,2.8.7,1.5.9,2.4,2.2,2.7,4,.2,1.2,0,2.3-.6,3.4,0,0,0,.2-.1.3,0,0,0,0,0,0,0,0,0,0,0,0-.3.3-.6.7-.9,1Z"/>
</svg>