<?xml version="1.0" encoding="UTF-8"?>
<svg id="Layer_1" xmlns="http://www.w3.org/2000/svg" width="62.7mm" height="27.5mm" xmlns:xlink="http://www.w3.org/1999/xlink" version="1.1" viewBox="0 0 177.6 77.9">
  <!-- Generator: Adobe Illustrator 29.2.1, SVG Export Plug-In . SVG Version: 2.1.0 Build 116)  -->
  <defs>
    <style>
      .st0 {
        fill: none;
      }

      .st1 {
        fill: #54ff6f;
      }

      .st2 {
        clip-path: url(#clippath);
      }
    </style>
    <clipPath id="clippath">
      <rect class="st0" x="-12" y="-3.4" width="202" height="89.5" transform="translate(-4.1 10.3) rotate(-6.5)"/>
    </clipPath>
  </defs>
  <g class="st2">
    <g>
      <path class="st1" d="M3.4,23.5c14.1-1.5,30.4-3.2,44-1.5,4,.5,5.2,6.8,1,6.3-3.3-.4-6.8-.6-10.3-.7,2.9,13.1,5.1,26.4,6.6,39.7.3,2.3-11.2,3.2-11.5.7-1.5-13.5-3.7-26.9-6.7-40.2-6.9.4-13.9,1.1-20.3,1.8-4.6.5-6.9-5.7-2.8-6.2Z"/>
      <path class="st1" d="M124.6,54.2c-5.9-.4-12.7.5-18.1,3.1-1.7,1.4-6.8,1.3-6.7-.6.5-11.7,5.4-24.1,10.3-35.2.9-2,8.1-1.8,7,.5-4,9-7.9,18.8-9.4,28.4,3.3-1.1,6.8-1.7,10.2-1.9-1.6-7.1.1-14.9,2.7-21.8.8-2,7.9-1.9,7,.5-2.7,7.1-4.5,15.7-1.9,22.9.9,1.7.8,4.3-1.2,4.1Z"/>
      <path class="st1" d="M141.8,53c-7.5-.4-16,.3-22.8,2.5-2.1,1.2-8.6,1-8.6-.5.2-10.1,5.9-20.7,11.7-30.3,1-1.7,10.2-1.5,8.9.5-4.7,7.8-9.3,16.1-10.8,24.4,4.1-.9,8.5-1.4,12.9-1.6-2.3-6.1-.4-12.8,2.6-18.8.9-1.7,10-1.6,8.9.5-3.1,6.1-5.1,13.5-1.5,19.7,1.3,1.5,1.2,3.7-1.3,3.5Z"/>
      <path class="st1" d="M151.1,29.2c6-.4,12.5-2.2,17.3-5.4,1.4-1.6,6.5-2.2,6.8-.4,1.9,11.5-.4,24.3-2.9,35.8-.5,2.1-7.6,2.9-7.1.4,2.1-9.4,3.9-19.4,3.5-29-3,1.5-6.4,2.6-9.8,3.3,3.1,6.7,3,14.6,1.8,21.7-.3,2.1-7.5,2.9-7.1.4,1.2-7.3,1.2-16-2.8-22.7-1.3-1.6-1.7-4.1.3-4.2Z"/>
      <path class="st1" d="M156.5,42.8s-1.9,2.6,4.2,4.6c-.8,6-.2,9.3-1,15.3.6,1.8-1.9,5.3-3.7,4.5-5.3-2.6-11.8-4.1-18-4.7-3-.3-.5-5.7,1.9-5.5,4.4.5,8.8,1.2,13,2.5.5-3.8,1-7.6,1.5-11.4l2.1-5.3Z"/>
      <path class="st1" d="M83.9,25.8c19.5,6.2,13.8,35.1,1.1,45.5-8.5,7-25.9,8.4-27.2-3.5-.3-2.8,8.9-4,9.3-1.2,1.6,14.1,14.3-.7,16.5-5.6,3.4-7.7,7.1-24.4-2.8-29.9-8.1-4.5-19.3,1.3-20.8,8.7-.8,4,.4,9.1,3,12.4,1.5,1.9,4,3.4,6.6,4.1-1.1-2.5-1.9-5.2-2.4-7.9-.5-2.8,8.7-4,9.3-1.2.7,3.6,1.6,6.8,3.5,10.1.9,1.4-1.3,2.6-2.9,2.9-11.4,2.5-22.1-1.4-25.4-10.5-5.4-15.1,13.5-29.8,32.2-23.9ZM74.4,57.7c-.2-2-1.5-4-3.2-5.9-2.3-2.6,3.2-7.4,5.9-4.4,2.5,2.8,3.8,5.7,4.1,8.7.2,1.7-1.6,3.4-3.4,3.8-1.9.4-3.3-.6-3.4-2.2Z"/>
      <path class="st1" d="M74.5,8.6c0-.2,0,.2-.2.5-.2.7-.4,1.4-.7,2.1-.7,2.5-1.3,5-1.8,7.6-.4,2.3-7.7,2.1-7.3,0,.7-3.7,1.6-7.4,3-11,.8-2,7.9-1.6,6.9.9Z"/>
      <path class="st1" d="M78.8,12.2c1.4-2.1,1.9-4.6,2-7.4,0-3.7,8.7-5.3,8.6-1,0,4.1-1.3,7.5-3.4,10.5-1.2,1.7-4.1,2.4-6,1.8-1.9-.6-2.3-2.4-1.2-4Z"/>
    </g>
  </g>
</svg>