<?xml version="1.0" encoding="UTF-8"?>
<svg id="Layer_1" xmlns="http://www.w3.org/2000/svg" width="41" height="37" version="1.1" viewBox="0 0 41 37">
  <!-- Generator: Adobe Illustrator 29.2.1, SVG Export Plug-In . SVG Version: 2.1.0 Build 116)  -->
  <defs>
    <style>
      .st0 {
        fill: #f6f3ff;
      }

      .st1 {
        fill: #281d44;
      }
    </style>
  </defs>
  <path class="st1" d="M23.5,32.4c0-2.4,2-4.3,4.4-4.2,2.1,0,3.9,1.8,4,4,.1,2.4-1.8,4.4-4.2,4.4s-4.2-1.9-4.2-4.2h0s0,0,0,0Z"/>
  <path class="st1" d="M40.8,14c-.4-2.3-1.3-4.5-2.7-6.4-1.6-2.2-3.8-4.1-6.3-5.3C29.1.9,26.3.2,23.4.2c-.8,0-1.6,0-2.4.2-3.3.5-6.6,1.8-9.2,3.9-3,2.3-4.9,5.3-5.5,8.7-.2,1-.3,2.1-.4,3.2-.1,1.7-.3,3.4-.8,4.5-.4.8-.9,1.3-2.4,1.3s-2.1.9-2.1,2.1.2.9.4,1.3c4.9,6.6,13.3,7.3,19.1,7.3h1.8c2.7,0,5.6-.1,8.2-1.1,2.2-.8,4.3-2.1,6-3.8,1.9-1.8,3.3-4,4-6.2.8-2.5,1-5,.6-7.5ZM38.2,20.8c-1.3,4-5,7.3-8.8,8.7-2.4.9-5.3,1-7.5,1h-1.8c-5.5,0-13-.7-17.4-6.5,6,0,4.8-6.7,5.6-10.7,1.2-6,7.2-10.1,13-10.9.7,0,1.4-.1,2.1-.1,9.5,0,18,8.5,14.7,18.5Z"/>
  <path class="st0" d="M38.2,20.8c-1.3,4-5,7.3-8.8,8.7-2.4.9-5.3,1-7.5,1h-1.8c-5.5,0-13-.7-17.4-6.5,6,0,4.8-6.7,5.6-10.7,1.2-6,7.2-10.1,13-10.9.7,0,1.4-.1,2.1-.1,9.5,0,18,8.5,14.7,18.5Z"/>
  <path class="st1" d="M20.7,12.9c0,1.2-1,2.1-2.2,2-1,0-1.8-.9-1.9-1.9,0-1.2.9-2.2,2-2.2s2,.9,2,2Z"/>
  <path class="st1" d="M30.2,12.9c0,1.1-.9,2-2,2s-2-.9-2-2,.9-2,2-2,2,.9,2,2Z"/>
  <path class="st1" d="M23.3,23.8c-3.4,0-6.5-2.3-7.1-5.2,0-.6.3-1.1.9-1.2.6,0,1.1.3,1.2.8.3,1.7,2.4,3.6,5.2,3.5,2.9,0,4.8-1.8,5.2-3.5.1-.6.7-1,1.3-.8.5.1.9.7.8,1.2,0,0,0,0,0,0-.3,1.4-1.2,2.6-2.5,3.6-1.3,1-3,1.5-4.7,1.6h-.2"/>
  <path class="st1" d="M8.9,32.4c0-2.4,2-4.3,4.4-4.2,2.1,0,3.9,1.8,4,4,.1,2.4-1.8,4.4-4.2,4.4-2.3,0-4.2-1.9-4.2-4.2h0s0,0,0,0Z"/>
</svg>